<svg xmlns="http://www.w3.org/2000/svg" xmlns:xlink="http://www.w3.org/1999/xlink" width="1080" zoomAndPan="magnify" viewBox="0 0 810 809.999993" height="1080" preserveAspectRatio="xMidYMid meet" version="1.0"><defs><clipPath id="fc54a2d686"><path d="M 333 115.257812 L 477 115.257812 L 477 259 L 333 259 Z M 333 115.257812 " clip-rule="nonzero"/></clipPath><clipPath id="3ac19d6ded"><path d="M 244.191406 535.851562 L 247.941406 535.851562 L 247.941406 539.601562 L 244.191406 539.601562 Z M 244.191406 535.851562 " clip-rule="nonzero"/></clipPath></defs><g clip-path="url(#fc54a2d686)"><path fill="#003213" d="M 425.390625 257.652344 C 446.800781 253.925781 464.644531 241.8125 476.144531 225.273438 C 463.003906 235.671875 446.398438 241.875 428.34375 241.875 C 385.757812 241.875 351.234375 207.355469 351.234375 164.769531 C 351.234375 145.933594 357.996094 128.679688 369.210938 115.285156 C 343.925781 131.855469 329.515625 162.382812 335.023438 194.058594 C 342.417969 236.570312 382.875 265.042969 425.390625 257.652344 " fill-opacity="1" fill-rule="nonzero"/></g><path fill="#003213" d="M 704.613281 611.582031 C 704.605469 594.949219 704.617188 576.410156 704.617188 576.410156 L 696.421875 566.96875 L 696.421875 487.867188 L 696.550781 487.867188 L 701.75 471.164062 L 704.675781 471.164062 L 704.675781 467.082031 L 690.671875 467.082031 L 690.671875 378.324219 L 694.378906 366.59375 L 697.859375 366.59375 L 697.859375 363.289062 L 686.648438 363.289062 L 686.648438 313.597656 L 689.367188 304.976562 L 691.925781 304.976562 L 691.925781 302.546875 L 680.089844 302.546875 L 680.089844 267.703125 L 681.730469 267.703125 L 681.730469 264.972656 L 683.15625 264.972656 L 683.15625 260.796875 C 686.78125 258.339844 689.167969 254.1875 689.167969 249.476562 C 689.167969 246.136719 687.96875 243.082031 685.980469 240.707031 C 686.152344 239.796875 685.832031 238.976562 684.789062 238.382812 C 683.054688 237.402344 681.828125 236.429688 680.886719 235.535156 C 680.964844 234.644531 680.796875 233.839844 680.269531 233.261719 C 678.089844 230.855469 677.464844 222.324219 676.75 217.089844 C 678.3125 216.570312 679.441406 215.097656 679.441406 213.355469 C 679.441406 211.445312 678.082031 209.855469 676.277344 209.496094 L 676.277344 207.222656 C 681.113281 207.082031 684.992188 203.128906 684.992188 198.257812 C 684.992188 197.855469 684.960938 197.457031 684.910156 197.066406 C 684.382812 200.582031 681.351562 203.28125 677.6875 203.28125 C 673.652344 203.28125 670.382812 200.011719 670.382812 195.976562 C 670.382812 193.09375 672.054688 190.601562 674.480469 189.414062 C 670.25 190.144531 667.035156 193.824219 667.035156 198.257812 C 667.035156 202.890625 670.546875 206.703125 675.054688 207.183594 L 675.054688 209.449219 C 673.089844 209.675781 671.566406 211.335938 671.566406 213.355469 C 671.566406 215.136719 672.742188 216.632812 674.359375 217.125 C 673.773438 222.210938 673.242188 230.398438 670.734375 233.261719 C 670.203125 233.867188 670.039062 234.699219 670.128906 235.617188 C 669.191406 236.441406 667.945312 237.371094 666.210938 238.382812 C 665.183594 238.984375 664.863281 239.804688 665.027344 240.710938 C 663.039062 243.085938 661.84375 246.140625 661.84375 249.476562 C 661.84375 254.1875 664.226562 258.339844 667.855469 260.796875 L 667.855469 264.972656 L 669.28125 264.972656 L 669.28125 267.703125 L 670.921875 267.703125 L 670.921875 302.546875 L 659.085938 302.546875 L 659.085938 304.976562 L 661.640625 304.976562 L 664.363281 313.597656 L 664.363281 363.289062 L 653.152344 363.289062 L 653.152344 366.59375 L 656.636719 366.59375 L 660.339844 378.324219 L 660.339844 467.082031 L 646.339844 467.082031 L 646.339844 471.164062 L 649.261719 471.164062 L 654.460938 487.867188 L 654.585938 487.867188 L 654.585938 547.09375 C 648.878906 518.050781 628.972656 494.609375 603.003906 485.484375 C 602.921875 484.191406 596.230469 482.203125 595.15625 481.574219 C 592.628906 480.085938 589.6875 476.644531 584.402344 475.117188 C 584.824219 474.28125 585.066406 473.34375 585.066406 472.34375 C 585.066406 469.769531 583.496094 467.5625 581.261719 466.621094 L 581.261719 463.351562 C 582.445312 462.570312 583.226562 461.230469 583.226562 459.707031 C 583.226562 457.796875 582 456.179688 580.296875 455.585938 L 580.296875 452.820312 C 581.292969 452.296875 581.980469 451.269531 581.980469 450.066406 C 581.980469 448.589844 580.945312 447.355469 579.5625 447.035156 L 579.5625 444.605469 C 585.121094 444.445312 589.578125 439.898438 589.578125 434.308594 C 589.578125 433.84375 589.542969 433.382812 589.488281 432.933594 C 588.878906 436.976562 585.398438 440.074219 581.1875 440.074219 C 576.554688 440.074219 572.796875 436.316406 572.796875 431.683594 C 572.796875 428.371094 574.714844 425.507812 577.5 424.144531 C 572.644531 424.980469 568.949219 429.210938 568.949219 434.308594 C 568.949219 439.628906 572.984375 444.007812 578.160156 444.5625 L 578.160156 447.035156 C 576.777344 447.355469 575.746094 448.589844 575.746094 450.066406 C 575.746094 451.269531 576.429688 452.296875 577.425781 452.820312 L 577.425781 455.585938 C 575.722656 456.179688 574.496094 457.796875 574.496094 459.707031 C 574.496094 461.230469 575.277344 462.570312 576.460938 463.351562 L 576.460938 466.621094 C 574.230469 467.5625 572.65625 469.769531 572.65625 472.34375 C 572.65625 473.328125 572.894531 474.25 573.296875 475.074219 C 568.644531 476.417969 566.472656 479.394531 562.613281 481.574219 C 561.527344 482.183594 554.804688 484.1875 554.722656 485.484375 C 539.191406 490.941406 525.835938 501.515625 516.382812 515.339844 C 510.460938 469.320312 480.265625 431.601562 440.078125 417.480469 C 439.960938 415.597656 430.242188 412.714844 428.679688 411.796875 C 425 409.632812 420.730469 404.628906 413.058594 402.410156 C 413.664062 401.199219 414.011719 399.835938 414.011719 398.390625 C 414.011719 394.648438 411.734375 391.441406 408.484375 390.078125 L 408.484375 385.320312 C 410.207031 384.183594 411.34375 382.238281 411.34375 380.023438 C 411.34375 377.25 409.5625 374.902344 407.085938 374.039062 L 407.085938 370.039062 C 408.539062 369.285156 409.527344 367.769531 409.527344 366.019531 C 409.527344 363.871094 408.03125 362.074219 406.019531 361.613281 L 406.019531 358.097656 C 414.09375 357.863281 420.574219 351.25 420.574219 343.121094 C 420.574219 342.441406 420.523438 341.78125 420.4375 341.128906 C 419.558594 347 414.496094 351.503906 408.378906 351.503906 C 401.644531 351.503906 396.183594 346.042969 396.183594 339.308594 C 396.183594 334.496094 398.96875 330.339844 403.019531 328.355469 C 395.964844 329.570312 390.59375 335.714844 390.59375 343.121094 C 390.59375 350.855469 396.457031 357.21875 403.980469 358.023438 L 403.980469 361.613281 C 401.96875 362.074219 400.472656 363.871094 400.472656 366.019531 C 400.472656 367.769531 401.460938 369.285156 402.914062 370.039062 L 402.914062 374.039062 C 400.4375 374.902344 398.65625 377.25 398.65625 380.023438 C 398.65625 382.238281 399.792969 384.183594 401.515625 385.320312 L 401.515625 390.078125 C 398.265625 391.441406 395.988281 394.648438 395.988281 398.390625 C 395.988281 399.8125 396.328125 401.15625 396.914062 402.351562 C 390.15625 404.308594 387 408.632812 381.390625 411.796875 C 379.8125 412.683594 370.039062 415.597656 369.921875 417.480469 C 328.351562 432.085938 297.472656 471.9375 293.09375 520.109375 C 283.578125 503.945312 268.992188 491.550781 251.726562 485.484375 C 251.644531 484.191406 244.953125 482.203125 243.878906 481.574219 C 241.347656 480.085938 238.40625 476.644531 233.128906 475.117188 C 233.546875 474.28125 233.785156 473.34375 233.785156 472.34375 C 233.785156 469.769531 232.21875 467.5625 229.984375 466.621094 L 229.984375 463.351562 C 231.167969 462.570312 231.949219 461.230469 231.949219 459.707031 C 231.949219 457.796875 230.722656 456.179688 229.019531 455.585938 L 229.019531 452.820312 C 230.015625 452.296875 230.699219 451.269531 230.699219 450.066406 C 230.699219 448.589844 229.667969 447.355469 228.285156 447.035156 L 228.285156 444.605469 C 233.84375 444.445312 238.300781 439.898438 238.300781 434.308594 C 238.300781 433.84375 238.269531 433.382812 238.207031 432.933594 C 237.605469 436.976562 234.117188 440.074219 229.910156 440.074219 C 225.273438 440.074219 221.515625 436.316406 221.515625 431.683594 C 221.515625 428.371094 223.433594 425.507812 226.21875 424.144531 C 221.367188 424.980469 217.671875 429.210938 217.671875 434.308594 C 217.671875 439.628906 221.703125 444.007812 226.882812 444.5625 L 226.882812 447.035156 C 225.5 447.355469 224.46875 448.589844 224.46875 450.066406 C 224.46875 451.269531 225.15625 452.296875 226.148438 452.820312 L 226.148438 455.585938 C 224.445312 456.179688 223.21875 457.796875 223.21875 459.707031 C 223.21875 461.230469 224 462.570312 225.183594 463.351562 L 225.183594 466.621094 C 222.949219 467.5625 221.382812 469.769531 221.382812 472.34375 C 221.382812 473.328125 221.613281 474.25 222.019531 475.074219 C 217.367188 476.417969 215.195312 479.394531 211.332031 481.574219 C 210.25 482.183594 203.527344 484.1875 203.441406 485.484375 C 172.523438 496.347656 150.195312 527.503906 150.195312 564.25 C 150.195312 565.25 150.21875 566.246094 150.25 567.238281 L 150.015625 566.96875 L 150.015625 487.867188 L 150.144531 487.867188 L 155.34375 471.164062 L 158.265625 471.164062 L 158.265625 467.082031 L 144.265625 467.082031 L 144.265625 378.324219 L 147.96875 366.59375 L 151.453125 366.59375 L 151.453125 363.289062 L 140.242188 363.289062 L 140.242188 313.597656 L 142.960938 304.976562 L 145.519531 304.976562 L 145.519531 302.546875 L 133.679688 302.546875 L 133.679688 267.703125 L 135.324219 267.703125 L 135.324219 264.972656 L 136.75 264.972656 L 136.75 260.796875 C 140.375 258.339844 142.761719 254.1875 142.761719 249.476562 C 142.761719 246.136719 141.5625 243.082031 139.574219 240.707031 C 139.746094 239.796875 139.421875 238.976562 138.382812 238.382812 C 136.648438 237.402344 135.421875 236.429688 134.480469 235.535156 C 134.554688 234.644531 134.386719 233.839844 133.863281 233.261719 C 131.683594 230.855469 131.0625 222.324219 130.34375 217.089844 C 131.910156 216.570312 133.035156 215.097656 133.035156 213.355469 C 133.035156 211.445312 131.675781 209.855469 129.871094 209.496094 L 129.871094 207.222656 C 134.703125 207.082031 138.585938 203.128906 138.585938 198.257812 C 138.585938 197.855469 138.554688 197.457031 138.503906 197.066406 C 137.976562 200.582031 134.945312 203.28125 131.28125 203.28125 C 127.25 203.28125 123.976562 200.011719 123.976562 195.976562 C 123.976562 193.09375 125.648438 190.601562 128.070312 189.414062 C 123.847656 190.144531 120.628906 193.824219 120.628906 198.257812 C 120.628906 202.890625 124.140625 206.703125 128.644531 207.183594 L 128.644531 209.449219 C 126.683594 209.675781 125.160156 211.335938 125.160156 213.355469 C 125.160156 215.136719 126.339844 216.632812 127.953125 217.125 C 127.367188 222.210938 126.835938 230.398438 124.328125 233.261719 C 123.796875 233.867188 123.632812 234.699219 123.722656 235.617188 C 122.785156 236.441406 121.539062 237.371094 119.800781 238.382812 C 118.777344 238.984375 118.457031 239.804688 118.621094 240.710938 C 116.636719 243.085938 115.433594 246.140625 115.433594 249.476562 C 115.433594 254.1875 117.820312 258.339844 121.449219 260.796875 L 121.449219 264.972656 L 122.875 264.972656 L 122.875 267.703125 L 124.515625 267.703125 L 124.515625 302.546875 L 112.679688 302.546875 L 112.679688 304.976562 L 115.234375 304.976562 L 117.960938 313.597656 L 117.960938 363.289062 L 106.746094 363.289062 L 106.746094 366.59375 L 110.230469 366.59375 L 113.929688 378.324219 L 113.929688 467.082031 L 99.933594 467.082031 L 99.933594 471.164062 L 102.855469 471.164062 L 108.058594 487.867188 L 108.183594 487.867188 L 108.183594 566.945312 L 99.984375 576.410156 C 99.984375 576.410156 99.996094 598.257812 99.992188 614.941406 C 64.539062 637.292969 31 663.902344 0.117188 694.789062 C 219.058594 499.992188 622.734375 527.546875 809.882812 694.789062 C 777.4375 662.339844 742.058594 634.613281 704.613281 611.582031 " fill-opacity="1" fill-rule="nonzero"/><g clip-path="url(#3ac19d6ded)"><path fill="#003213" d="M 244.191406 535.851562 L 247.941406 535.851562 L 247.941406 539.601562 L 244.191406 539.601562 Z M 244.191406 535.851562 " fill-opacity="1" fill-rule="nonzero"/></g></svg>