<svg xmlns="http://www.w3.org/2000/svg" xmlns:xlink="http://www.w3.org/1999/xlink" width="1080" zoomAndPan="magnify" viewBox="0 0 810 809.999993" height="1080" preserveAspectRatio="xMidYMid meet" version="1.0"><defs><clipPath id="c862487995"><path d="M 11.613281 11.613281 L 798.363281 11.613281 L 798.363281 798.363281 L 11.613281 798.363281 Z M 11.613281 11.613281 " clip-rule="nonzero"/></clipPath><clipPath id="4e2f4dfd2e"><path d="M 273.96875 101.074219 L 277.71875 101.074219 L 277.71875 104.824219 L 273.96875 104.824219 Z M 273.96875 101.074219 " clip-rule="nonzero"/></clipPath></defs><g clip-path="url(#c862487995)"><path fill="#003213" d="M 404.996094 11.617188 L 336.230469 58.867188 L 254.402344 41.578125 L 208.6875 111.496094 L 126.863281 126.863281 L 111.496094 208.691406 L 41.578125 254.40625 L 58.480469 336.230469 L 11.613281 404.996094 L 58.480469 474.144531 L 41.578125 555.585938 L 111.496094 601.300781 L 126.863281 683.128906 L 208.6875 698.878906 L 254.402344 768.414062 L 336.230469 751.511719 L 404.996094 798.378906 L 473.761719 751.511719 L 555.585938 768.414062 L 601.300781 698.878906 L 683.128906 683.128906 L 698.492188 601.300781 L 768.410156 555.585938 L 751.507812 474.144531 L 798.375 404.996094 L 751.507812 336.230469 L 768.410156 254.40625 L 698.492188 208.691406 L 683.128906 126.863281 L 601.300781 111.496094 L 555.585938 41.578125 L 473.761719 58.867188 Z M 404.996094 134.546875 C 554.359375 134.546875 675.445312 255.632812 675.445312 404.996094 C 675.445312 554.359375 554.359375 675.445312 404.996094 675.445312 C 255.628906 675.445312 134.546875 554.359375 134.546875 404.996094 C 134.546875 255.632812 255.628906 134.546875 404.996094 134.546875 Z M 524.46875 281.296875 L 364.660156 451.863281 L 280.910156 377.335938 L 231.738281 432.273438 L 342.375 530.617188 L 369.269531 554.433594 L 393.855469 528.3125 L 578.253906 331.621094 Z M 524.46875 281.296875 " fill-opacity="1" fill-rule="nonzero"/></g><g clip-path="url(#4e2f4dfd2e)"><path fill="#003213" d="M 273.96875 101.074219 L 277.71875 101.074219 L 277.71875 104.824219 L 273.96875 104.824219 Z M 273.96875 101.074219 " fill-opacity="1" fill-rule="nonzero"/></g></svg>