<svg xmlns="http://www.w3.org/2000/svg" xmlns:xlink="http://www.w3.org/1999/xlink" width="1080" zoomAndPan="magnify" viewBox="0 0 810 809.999993" height="1080" preserveAspectRatio="xMidYMid meet" version="1.0"><defs><clipPath id="f1c2dda9c9"><path d="M 207 5.835938 L 602.914062 5.835938 L 602.914062 578 L 207 578 Z M 207 5.835938 " clip-rule="nonzero"/></clipPath><clipPath id="cacc406376"><path d="M 299 688 L 510 688 L 510 803.835938 L 299 803.835938 Z M 299 688 " clip-rule="nonzero"/></clipPath><clipPath id="1eadd22f24"><path d="M 271.589844 508.929688 L 282.496094 508.929688 L 282.496094 518.460938 L 271.589844 518.460938 Z M 271.589844 508.929688 " clip-rule="nonzero"/></clipPath><clipPath id="ada815ecf6"><path d="M 277.035156 508.929688 L 282.480469 518.460938 L 271.589844 518.460938 Z M 277.035156 508.929688 " clip-rule="nonzero"/></clipPath></defs><g clip-path="url(#f1c2dda9c9)"><path fill="#000000" d="M 581.703125 379.472656 C 581.703125 477.023438 502.339844 556.378906 404.800781 556.378906 C 307.257812 556.378906 227.894531 477.023438 227.894531 379.472656 L 227.894531 203.609375 C 227.894531 106.066406 307.257812 26.710938 404.800781 26.710938 C 502.339844 26.710938 581.703125 106.066406 581.703125 203.609375 Z M 544.464844 63.941406 C 507.007812 26.492188 457.40625 5.867188 404.800781 5.867188 C 352.183594 5.867188 302.589844 26.492188 265.132812 63.941406 C 227.6875 101.398438 207.054688 151 207.054688 203.609375 L 207.054688 379.472656 C 207.054688 432.082031 227.6875 481.683594 265.132812 519.140625 C 302.589844 556.597656 352.183594 577.222656 404.800781 577.222656 C 457.417969 577.222656 507.007812 556.597656 544.464844 519.140625 C 581.914062 481.683594 602.546875 432.082031 602.546875 379.472656 L 602.546875 203.609375 C 602.546875 151 581.914062 101.398438 544.464844 63.941406 " fill-opacity="1" fill-rule="nonzero"/></g><path fill="#000000" d="M 415.472656 182.445312 C 415.472656 187.671875 411.230469 191.914062 406 191.914062 L 403.597656 191.914062 C 398.371094 191.914062 394.125 187.671875 394.125 182.445312 L 394.125 119.648438 C 394.125 114.429688 398.371094 110.175781 403.597656 110.175781 L 406 110.175781 C 411.230469 110.175781 415.472656 114.429688 415.472656 119.648438 Z M 406 89.335938 L 403.597656 89.335938 C 386.882812 89.335938 373.285156 102.933594 373.285156 119.648438 L 373.285156 182.445312 C 373.285156 199.15625 386.882812 212.757812 403.597656 212.757812 L 406 212.757812 C 422.714844 212.757812 436.3125 199.15625 436.3125 182.445312 L 436.3125 119.648438 C 436.3125 102.933594 422.714844 89.335938 406 89.335938 " fill-opacity="1" fill-rule="nonzero"/><path fill="#000000" d="M 492.046875 620.410156 L 404.800781 707.660156 L 317.550781 620.410156 C 313.480469 616.339844 306.878906 616.339844 302.816406 620.410156 C 298.742188 624.476562 298.742188 631.078125 302.816406 635.148438 L 397.429688 729.765625 C 399.460938 731.796875 402.136719 732.820312 404.800781 732.820312 C 407.464844 732.820312 410.136719 731.796875 412.167969 729.765625 L 506.785156 635.148438 C 510.855469 631.078125 510.855469 624.476562 506.785156 620.410156 C 502.710938 616.339844 496.121094 616.339844 492.046875 620.410156 " fill-opacity="1" fill-rule="nonzero"/><g clip-path="url(#cacc406376)"><path fill="#000000" d="M 492.046875 691.398438 L 404.800781 778.644531 L 317.550781 691.398438 C 313.480469 687.324219 306.878906 687.324219 302.816406 691.398438 C 298.742188 695.46875 298.742188 702.0625 302.816406 706.132812 L 397.429688 800.75 C 399.460938 802.792969 402.136719 803.804688 404.800781 803.804688 C 407.464844 803.804688 410.136719 802.792969 412.167969 800.75 L 506.785156 706.132812 C 510.855469 702.0625 510.855469 695.46875 506.785156 691.398438 C 502.710938 687.324219 496.121094 687.324219 492.046875 691.398438 " fill-opacity="1" fill-rule="nonzero"/></g><g clip-path="url(#1eadd22f24)"><g clip-path="url(#ada815ecf6)"><path fill="#000000" d="M 271.589844 508.929688 L 282.496094 508.929688 L 282.496094 518.460938 L 271.589844 518.460938 Z M 271.589844 508.929688 " fill-opacity="1" fill-rule="nonzero"/></g></g></svg>