<svg xmlns="http://www.w3.org/2000/svg" xmlns:xlink="http://www.w3.org/1999/xlink" width="1080" zoomAndPan="magnify" viewBox="0 0 810 809.999993" height="1080" preserveAspectRatio="xMidYMid meet" version="1.0"><defs><clipPath id="b87b17a1c0"><path d="M 43 38 L 772 38 L 772 767 L 43 767 Z M 43 38 " clip-rule="nonzero"/></clipPath><clipPath id="6357971eb2"><path d="M -279.527344 404.375 L 404.597656 -279.753906 L 1089.785156 405.433594 L 405.660156 1089.558594 Z M -279.527344 404.375 " clip-rule="nonzero"/></clipPath><clipPath id="24f2d9aa04"><path d="M -279.527344 404.375 L 404.597656 -279.753906 L 1089.785156 405.433594 L 405.660156 1089.558594 Z M -279.527344 404.375 " clip-rule="nonzero"/></clipPath></defs><g clip-path="url(#b87b17a1c0)"><g clip-path="url(#6357971eb2)"><g clip-path="url(#24f2d9aa04)"><path fill="#003213" d="M 727.917969 44.542969 L 765.457031 82.082031 C 562.691406 452.449219 702.316406 653.945312 771.761719 723.390625 L 732.65625 762.492188 C 664.144531 693.980469 534.382812 512.527344 651.316406 197.785156 L 82.859375 766.246094 L 43.753906 727.140625 L 612.210938 158.683594 C 297.480469 275.625 116.027344 145.863281 47.503906 77.339844 L 86.609375 38.238281 C 156.050781 107.679688 357.5625 247.316406 727.917969 44.542969 Z M 727.917969 44.542969 " fill-opacity="1" fill-rule="nonzero"/></g></g></g></svg>