<svg xmlns="http://www.w3.org/2000/svg" xmlns:xlink="http://www.w3.org/1999/xlink" width="1080" zoomAndPan="magnify" viewBox="0 0 810 809.999993" height="1080" preserveAspectRatio="xMidYMid meet" version="1.0"><defs><clipPath id="5147b769ce"><path d="M 5.601562 28.394531 L 370.289062 28.394531 L 370.289062 393.078125 L 5.601562 393.078125 Z M 5.601562 28.394531 " clip-rule="nonzero"/></clipPath><clipPath id="dd6803174f"><path d="M 439.710938 28.394531 L 804.398438 28.394531 L 804.398438 393.078125 L 439.710938 393.078125 Z M 439.710938 28.394531 " clip-rule="nonzero"/></clipPath><clipPath id="02d9c11693"><path d="M 622.054688 28.394531 C 521.351562 28.394531 439.710938 110.03125 439.710938 210.738281 C 439.710938 311.441406 521.351562 393.078125 622.054688 393.078125 C 722.761719 393.078125 804.398438 311.441406 804.398438 210.738281 C 804.398438 110.03125 722.761719 28.394531 622.054688 28.394531 Z M 622.054688 28.394531 " clip-rule="nonzero"/></clipPath><clipPath id="0ce81bce25"><path d="M 5.601562 462.503906 L 370.820312 462.503906 L 370.820312 781.605469 L 5.601562 781.605469 Z M 5.601562 462.503906 " clip-rule="nonzero"/></clipPath><clipPath id="f3cf4526af"><path d="M 187.945312 462.503906 L 370.289062 781.605469 L 5.601562 781.605469 Z M 187.945312 462.503906 " clip-rule="nonzero"/></clipPath><clipPath id="d6f55156cc"><path d="M 456.984375 451.464844 L 787.125 451.464844 L 787.125 781.605469 L 456.984375 781.605469 Z M 456.984375 451.464844 " clip-rule="nonzero"/></clipPath><clipPath id="18b58273e7"><path d="M 622.054688 451.464844 L 787.125 577.566406 L 724.074219 781.605469 L 520.035156 781.605469 L 456.984375 577.566406 Z M 622.054688 451.464844 " clip-rule="nonzero"/></clipPath></defs><g clip-path="url(#5147b769ce)"><path fill="#003213" d="M 5.601562 28.394531 L 370.289062 28.394531 L 370.289062 393.078125 L 5.601562 393.078125 Z M 5.601562 28.394531 " fill-opacity="1" fill-rule="nonzero"/></g><g clip-path="url(#dd6803174f)"><g clip-path="url(#02d9c11693)"><path fill="#003213" d="M 439.710938 28.394531 L 804.398438 28.394531 L 804.398438 393.078125 L 439.710938 393.078125 Z M 439.710938 28.394531 " fill-opacity="1" fill-rule="nonzero"/></g></g><g clip-path="url(#0ce81bce25)"><g clip-path="url(#f3cf4526af)"><path fill="#003213" d="M 5.601562 462.503906 L 370.820312 462.503906 L 370.820312 781.605469 L 5.601562 781.605469 Z M 5.601562 462.503906 " fill-opacity="1" fill-rule="nonzero"/></g></g><g clip-path="url(#d6f55156cc)"><g clip-path="url(#18b58273e7)"><path fill="#003213" d="M 456.984375 451.464844 L 787.125 451.464844 L 787.125 781.605469 L 456.984375 781.605469 Z M 456.984375 451.464844 " fill-opacity="1" fill-rule="nonzero"/></g></g></svg>